<?xml version="1.0" standalone="no"?>
<!DOCTYPE svg PUBLIC "-//W3C//DTD SVG 20010904//EN"
 "http://www.w3.org/TR/2001/REC-SVG-20010904/DTD/svg10.dtd">
<svg version="1.0" xmlns="http://www.w3.org/2000/svg"
 width="512.000000pt" height="512.000000pt" viewBox="0 0 512.000000 512.000000"
 preserveAspectRatio="xMidYMid meet">
<metadata>
Created by potrace 1.14, written by Peter Selinger 2001-2017
</metadata>
<g transform="translate(0.000000,512.000000) scale(0.100000,-0.100000)"
fill="#000000" stroke="none">
<path d="M2337 4574 c-1 -2 -43 -5 -92 -8 -117 -7 -149 -12 -275 -42 -211 -52
-383 -121 -528 -211 -29 -18 -55 -33 -58 -33 -2 0 -10 -4 -17 -10 -7 -5 -50
-38 -97 -72 -84 -62 -250 -220 -323 -308 -101 -121 -216 -312 -277 -460 -41
-100 -98 -277 -106 -335 -2 -11 -10 -63 -19 -115 -16 -98 -22 -359 -10 -460
20 -172 27 -211 61 -330 30 -104 76 -226 110 -291 7 -14 11 -29 9 -33 -3 -3
-2 -4 1 -2 3 3 22 -24 41 -60 42 -80 131 -211 191 -284 82 -98 303 -310 323
-310 6 0 8 -7 5 -16 -3 -8 -2 -13 3 -10 5 3 18 -3 30 -13 12 -11 40 -34 61
-51 22 -18 37 -37 33 -44 -3 -6 -3 -8 2 -4 9 8 65 -22 65 -34 0 -4 6 -8 13 -8
7 0 22 -8 33 -18 10 -10 45 -33 76 -52 31 -19 55 -37 52 -42 -3 -4 1 -5 9 -2
8 3 22 -2 31 -11 9 -9 16 -14 16 -11 0 3 18 -4 40 -15 22 -12 38 -25 35 -29
-3 -5 0 -12 6 -16 8 -4 9 -3 5 4 -12 20 24 13 57 -10 18 -13 33 -22 35 -20 8
8 22 0 16 -10 -4 -7 -3 -8 5 -4 6 4 34 0 62 -9 37 -12 47 -20 38 -26 -8 -5 -9
-9 -3 -9 5 0 15 5 22 12 7 7 12 8 12 2 0 -5 14 -11 32 -12 17 -2 38 -7 45 -13
7 -6 19 -9 27 -6 8 3 17 3 21 -1 3 -4 14 -7 23 -7 9 0 17 -5 17 -12 0 -6 4
-15 8 -20 5 -4 7 -1 5 7 -2 10 4 15 17 14 25 -2 113 -13 140 -19 11 -2 35 -4
54 -4 30 -1 32 -3 20 -18 -12 -16 -12 -17 2 -6 9 7 20 9 24 5 5 -4 5 -1 1 6
-5 8 0 12 14 12 13 0 19 -4 14 -12 -5 -7 -3 -8 7 -2 17 11 140 14 133 3 -2 -4
1 -11 7 -15 7 -4 9 -3 5 4 -10 17 7 22 99 26 47 2 89 6 92 10 10 10 45 7 38
-3 -3 -5 -1 -13 5 -16 6 -4 10 -3 9 2 -5 28 2 35 30 30 18 -4 31 -2 33 5 2 6
18 11 36 12 18 0 32 4 32 7 0 3 6 6 13 6 6 0 22 3 35 7 15 5 22 3 22 -5 0 -7
6 -5 14 6 8 11 19 16 30 12 9 -4 15 -3 11 2 -10 17 20 18 33 2 10 -14 11 -14
7 0 -6 16 52 45 86 43 10 -1 17 3 16 9 -1 5 4 12 12 15 9 3 12 0 9 -9 -4 -10
1 -15 13 -15 13 0 15 4 8 13 -8 8 -2 16 21 28 36 19 57 11 38 -13 -9 -12 -6
-11 10 2 22 19 30 32 13 21 -5 -3 -13 -1 -16 5 -4 6 9 17 27 24 18 8 63 33
100 55 42 25 74 38 85 35 13 -4 14 -3 5 3 -10 8 -10 12 3 23 8 7 15 9 15 4 0
-4 7 1 15 12 8 10 15 15 15 10 0 -5 11 3 24 17 18 19 26 23 35 14 9 -9 11 -8
6 4 -3 9 2 22 11 30 16 12 17 12 9 -1 -5 -8 26 20 68 63 43 42 83 77 88 77 6
0 7 5 4 10 -6 9 8 14 28 11 5 -1 6 3 3 7 -7 12 28 44 39 35 4 -5 5 -2 1 5 -5
8 -1 21 10 32 32 32 44 49 44 60 0 6 5 8 10 5 6 -3 10 1 10 10 0 8 7 18 15 21
8 3 17 15 21 27 3 11 20 34 38 50 17 16 25 26 18 22 -11 -6 -12 -3 -2 14 10
19 14 20 28 10 14 -11 15 -11 5 0 -9 11 -7 23 9 55 11 23 26 44 32 48 6 4 7 8
3 8 -4 0 -3 9 3 20 6 11 16 17 22 14 6 -4 8 -3 4 4 -3 6 -1 23 5 38 8 23 12
25 19 14 6 -8 10 -10 10 -4 0 5 -5 15 -12 22 -9 9 -8 12 4 12 9 0 20 5 24 12
4 6 3 8 -4 4 -7 -4 -10 1 -9 14 1 11 5 20 9 20 4 0 8 9 8 20 0 11 5 20 11 20
5 0 7 5 4 10 -3 6 -1 10 5 10 6 0 9 4 6 8 -3 5 4 32 15 61 10 29 17 56 14 62
-4 5 -2 9 2 9 5 0 15 28 22 62 7 35 18 66 24 70 9 6 8 8 -1 8 -10 0 -10 5 -2
20 6 11 8 25 5 30 -3 6 -3 10 2 10 4 0 8 15 9 33 0 17 4 64 9 102 10 85 10
244 0 340 -4 39 -8 85 -10 103 -1 17 -4 35 -8 38 -3 3 -3 17 -1 30 2 13 0 24
-6 24 -6 0 -10 8 -9 18 1 9 0 19 -1 22 -3 10 -11 46 -17 80 -3 19 -8 37 -12
40 -3 3 -12 25 -19 50 -7 25 -14 50 -16 55 -1 6 -10 27 -19 49 -9 21 -17 45
-17 52 0 8 -4 14 -10 14 -5 0 -10 6 -10 13 0 12 -79 177 -90 187 -3 3 -27 39
-52 80 -25 41 -55 85 -65 97 -10 12 -28 35 -41 51 -12 16 -42 50 -65 76 -24
25 -42 46 -40 46 2 0 -32 32 -172 161 -88 81 -172 152 -228 195 -71 53 -233
154 -247 154 -5 0 -10 5 -10 10 0 6 -4 10 -9 10 -5 0 -42 15 -83 34 -40 18
-86 38 -103 44 -16 5 -39 13 -50 18 -11 4 -24 8 -30 10 -5 1 -48 14 -95 27
-88 26 -182 47 -235 53 -118 12 -313 23 -318 18z"/>
<path d="M4315 1861 c-3 -5 -2 -12 3 -15 5 -3 9 1 9 9 0 17 -3 19 -12 6z"/>
<path d="M4269 1723 c-13 -16 -12 -17 4 -4 9 7 17 15 17 17 0 8 -8 3 -21 -13z"/>
<path d="M4233 1675 c0 -8 4 -12 9 -9 5 3 6 10 3 15 -9 13 -12 11 -12 -6z"/>
<path d="M4190 1576 c0 -2 8 -10 18 -17 15 -13 16 -12 3 4 -13 16 -21 21 -21
13z"/>
<path d="M4070 1419 c0 -5 5 -7 10 -4 6 3 10 8 10 11 0 2 -4 4 -10 4 -5 0 -10
-5 -10 -11z"/>
<path d="M4016 1362 c-3 -4 4 -9 15 -9 23 -2 25 3 4 10 -8 4 -16 3 -19 -1z"/>
<path d="M3919 1233 c-13 -16 -12 -17 4 -4 9 7 17 15 17 17 0 8 -8 3 -21 -13z"/>
<path d="M3876 1193 c-6 -14 -5 -15 5 -6 7 7 10 15 7 18 -3 3 -9 -2 -12 -12z"/>
<path d="M3906 1198 c3 -5 10 -6 15 -3 13 9 11 12 -6 12 -8 0 -12 -4 -9 -9z"/>
<path d="M3866 1158 c3 -5 10 -6 15 -3 13 9 11 12 -6 12 -8 0 -12 -4 -9 -9z"/>
<path d="M3826 1138 c3 -5 10 -6 15 -3 13 9 11 12 -6 12 -8 0 -12 -4 -9 -9z"/>
<path d="M3696 1033 c-6 -14 -5 -15 5 -6 7 7 10 15 7 18 -3 3 -9 -2 -12 -12z"/>
<path d="M3644 998 l-19 -23 23 19 c21 18 27 26 19 26 -2 0 -12 -10 -23 -22z"/>
<path d="M3580 959 c0 -5 5 -7 10 -4 6 3 10 8 10 11 0 2 -4 4 -10 4 -5 0 -10
-5 -10 -11z"/>
<path d="M3531 947 c2 -1 13 -9 24 -17 19 -14 19 -14 6 3 -7 9 -18 17 -24 17
-6 0 -8 -1 -6 -3z"/>
<path d="M3510 919 c0 -5 5 -7 10 -4 6 3 10 8 10 11 0 2 -4 4 -10 4 -5 0 -10
-5 -10 -11z"/>
<path d="M3590 920 c0 -5 5 -10 11 -10 5 0 7 5 4 10 -3 6 -8 10 -11 10 -2 0
-4 -4 -4 -10z"/>
<path d="M3535 911 c-3 -5 -2 -12 3 -15 5 -3 9 1 9 9 0 17 -3 19 -12 6z"/>
<path d="M3430 880 c0 -5 5 -10 11 -10 5 0 7 5 4 10 -3 6 -8 10 -11 10 -2 0
-4 -4 -4 -10z"/>
<path d="M3635 880 c3 -5 8 -10 11 -10 2 0 4 5 4 10 0 6 -5 10 -11 10 -5 0 -7
-4 -4 -10z"/>
<path d="M3220 786 c0 -2 8 -10 18 -17 15 -13 16 -12 3 4 -13 16 -21 21 -21
13z"/>
<path d="M3333 775 c0 -8 4 -12 9 -9 5 3 6 10 3 15 -9 13 -12 11 -12 -6z"/>
<path d="M3055 730 c-4 -6 -10 -8 -15 -5 -5 3 -11 1 -14 -4 -8 -13 22 -7 36 7
7 7 9 12 6 12 -4 0 -10 -5 -13 -10z"/>
<path d="M2994 722 c3 -5 0 -13 -6 -15 -9 -4 -10 -6 -1 -6 17 -1 25 16 12 25
-7 4 -9 3 -5 -4z"/>
<path d="M3079 713 c-13 -16 -12 -17 4 -4 16 13 21 21 13 21 -2 0 -10 -8 -17
-17z"/>
<path d="M2135 700 c3 -5 8 -10 11 -10 2 0 4 5 4 10 0 6 -5 10 -11 10 -5 0 -7
-4 -4 -10z"/>
<path d="M2230 700 c0 -5 5 -10 11 -10 5 0 7 5 4 10 -3 6 -8 10 -11 10 -2 0
-4 -4 -4 -10z"/>
<path d="M2294 680 c0 -13 4 -16 10 -10 7 7 7 13 0 20 -6 6 -10 3 -10 -10z"/>
<path d="M2950 680 c0 -5 5 -10 11 -10 5 0 7 5 4 10 -3 6 -8 10 -11 10 -2 0
-4 -4 -4 -10z"/>
<path d="M3006 678 c3 -5 10 -6 15 -3 13 9 11 12 -6 12 -8 0 -12 -4 -9 -9z"/>
<path d="M2513 665 c0 -8 4 -12 9 -9 5 3 6 10 3 15 -9 13 -12 11 -12 -6z"/>
<path d="M2793 665 c0 -8 4 -12 9 -9 5 3 6 10 3 15 -9 13 -12 11 -12 -6z"/>
<path d="M2588 663 c7 -3 16 -2 19 1 4 3 -2 6 -13 5 -11 0 -14 -3 -6 -6z"/>
<path d="M2890 665 c0 -7 30 -13 34 -7 3 4 -4 9 -15 9 -10 1 -19 0 -19 -2z"/>
<path d="M2465 640 c-3 -6 1 -7 9 -4 18 7 21 14 7 14 -6 0 -13 -4 -16 -10z"/>
<path d="M2630 606 c0 -2 7 -7 16 -10 8 -3 12 -2 9 4 -6 10 -25 14 -25 6z"/>
</g>
</svg>
